<svg width="12" height="12" viewBox="0 0 12 12" fill="none" xmlns="http://www.w3.org/2000/svg">
<path fill-rule="evenodd" clip-rule="evenodd" d="M5.78732 0.753491C5.6579 0.753433 5.53797 0.753379 5.42649 0.753553V0.751953C4.23368 0.753286 4.00487 0.761287 3.41447 0.787954C2.79046 0.81662 2.45166 0.920622 2.22606 1.00862C1.92739 1.12489 1.71405 1.26356 1.49005 1.48756C1.26605 1.71156 1.12711 1.9249 1.01111 2.22357C0.923508 2.44917 0.81924 2.78784 0.790707 3.41185C0.76004 4.08652 0.753906 4.28812 0.753906 5.99721C0.753906 7.70629 0.76004 7.90896 0.790707 8.58363C0.819107 9.20764 0.923508 9.54631 1.01111 9.77165C1.12738 10.0704 1.26605 10.2833 1.49005 10.5073C1.71405 10.7313 1.92739 10.8699 2.22606 10.9859C2.45179 11.0735 2.79046 11.1778 3.41447 11.2066C4.08914 11.2373 4.29168 11.2439 6.00063 11.2439C7.70945 11.2439 7.91212 11.2373 8.58679 11.2066C9.2108 11.1781 9.54973 11.0741 9.77507 10.9861C10.0739 10.8701 10.2865 10.7314 10.5105 10.5074C10.7345 10.2835 10.8735 10.0708 10.9895 9.77218C11.0771 9.54684 11.1813 9.20817 11.2099 8.58417C11.2406 7.90949 11.2472 7.70682 11.2472 5.99881C11.2472 4.29079 11.2406 4.08812 11.2099 3.41345C11.1815 2.78944 11.0771 2.45077 10.9895 2.22543C10.8732 1.92677 10.7345 1.71343 10.5105 1.48943C10.2867 1.26543 10.0737 1.12676 9.77507 1.01076C9.54947 0.923155 9.2108 0.818887 8.58679 0.790354C7.91198 0.759687 7.70945 0.753553 6.00063 0.753553L5.78732 0.753491ZM8.64883 2.58389C8.64883 2.15975 8.99283 1.81615 9.41684 1.81615V1.81589C9.84084 1.81589 10.1848 2.15989 10.1848 2.58389C10.1848 3.0079 9.84084 3.3519 9.41684 3.3519C8.99283 3.3519 8.64883 3.0079 8.64883 2.58389ZM6.00057 2.71359C4.18555 2.71366 2.714 4.18525 2.714 6.00029C2.714 7.81538 4.18562 9.28633 6.0007 9.28633C7.81579 9.28633 9.28687 7.81538 9.28687 6.00029C9.28687 4.18521 7.81566 2.71359 6.00057 2.71359ZM8.13388 6.00005C8.13388 4.82178 7.17867 3.8667 6.00053 3.8667C4.82225 3.8667 3.86717 4.82178 3.86717 6.00005C3.86717 7.1782 4.82225 8.13341 6.00053 8.13341C7.17867 8.13341 8.13388 7.1782 8.13388 6.00005Z" fill="#F8BB12"/>
</svg>
