<svg width="13" height="11" viewBox="0 0 13 11" fill="none" xmlns="http://www.w3.org/2000/svg">
<path d="M0.431242 5.37287C1.65888 4.69667 3.02925 4.13228 4.30966 3.56502C6.51245 2.63589 8.724 1.72286 10.9579 0.872847C11.3925 0.728021 12.1734 0.586407 12.25 1.23048C12.2081 2.14219 12.0356 3.04857 11.9173 3.95494C11.617 5.94815 11.2699 7.93452 10.9314 9.92116C10.8148 10.5829 9.98585 10.9255 9.45543 10.502C8.18071 9.64097 6.89619 8.78829 5.63775 7.9073C5.22552 7.48843 5.60779 6.88689 5.97594 6.58777C7.02584 5.5531 8.13927 4.67403 9.1343 3.58589C9.4027 2.93776 8.60965 3.48398 8.34806 3.65136C6.91074 4.64184 5.50861 5.69279 3.99323 6.56328C3.21917 6.98938 2.317 6.62525 1.54329 6.38749C0.849581 6.10027 -0.166982 5.81089 0.431172 5.37295L0.431242 5.37287Z" fill="#F8BB12"/>
</svg>
