<svg width="15" height="8" viewBox="0 0 15 8" fill="none" xmlns="http://www.w3.org/2000/svg">
<path d="M13.9473 7.22488C13.9304 7.18829 13.9145 7.15794 13.8998 7.13362C13.6566 6.69547 13.1917 6.15768 12.5054 5.52008L12.4909 5.50548L12.4837 5.49832L12.4763 5.49098H12.469C12.1575 5.19409 11.9603 4.99446 11.8777 4.89225C11.7266 4.69756 11.6927 4.50049 11.7753 4.30081C11.8337 4.14995 12.0529 3.83134 12.4324 3.34456C12.632 3.08658 12.7901 2.87982 12.9069 2.72405C13.7489 1.60458 14.114 0.889223 14.002 0.5777L13.9585 0.504902C13.9293 0.461074 13.8538 0.42098 13.7323 0.384414C13.6105 0.347925 13.4548 0.341891 13.2649 0.366208L11.1624 0.380732C11.1284 0.368663 11.0797 0.369788 11.0164 0.384414C10.9531 0.39904 10.9214 0.406379 10.9214 0.406379L10.8848 0.424662L10.8558 0.446627C10.8314 0.461151 10.8047 0.486696 10.7754 0.52321C10.7464 0.559597 10.7221 0.602299 10.7026 0.650959C10.4737 1.23987 10.2135 1.78741 9.92138 2.29354C9.74128 2.59535 9.5759 2.85691 9.42485 3.07837C9.27401 3.29976 9.14747 3.46287 9.04534 3.56743C8.94306 3.67209 8.85075 3.75593 8.76785 3.81927C8.68508 3.88264 8.62189 3.90941 8.57814 3.89961C8.53429 3.88982 8.49299 3.8801 8.4539 3.87039C8.3858 3.82656 8.33103 3.76696 8.28974 3.69152C8.24826 3.61609 8.22034 3.52115 8.20574 3.40677C8.19121 3.29232 8.18262 3.19387 8.18017 3.1111C8.17789 3.02843 8.17894 2.9115 8.18387 2.76064C8.18894 2.6097 8.19121 2.50757 8.19121 2.45402C8.19121 2.26905 8.19482 2.0683 8.20206 1.85171C8.20942 1.63513 8.21538 1.46353 8.22036 1.33711C8.22532 1.21056 8.22763 1.07668 8.22763 0.935531C8.22763 0.794383 8.21903 0.683689 8.20206 0.603347C8.18528 0.523107 8.15953 0.44522 8.1256 0.369711C8.09146 0.294279 8.0415 0.235928 7.97594 0.194504C7.91025 0.153131 7.82858 0.120299 7.73138 0.0959046C7.4734 0.0375276 7.1449 0.00594826 6.74573 0.00103876C5.84051 -0.00867795 5.25886 0.0497756 5.00091 0.176323C4.89871 0.229791 4.80622 0.302845 4.72352 0.395256C4.63589 0.50237 4.62367 0.560824 4.68693 0.570438C4.979 0.614189 5.18576 0.718848 5.30745 0.884314L5.3513 0.971994C5.38541 1.03526 5.41947 1.14725 5.45356 1.30783C5.48759 1.46842 5.50955 1.64605 5.51922 1.84064C5.54351 2.19599 5.54351 2.50018 5.51922 2.75322C5.49485 3.00637 5.47184 3.20344 5.44987 3.34459C5.42791 3.48573 5.39508 3.60011 5.3513 3.68769C5.30745 3.77529 5.27827 3.82884 5.26365 3.84827C5.24904 3.8677 5.23687 3.87995 5.22721 3.88476C5.16395 3.909 5.09815 3.92135 5.03006 3.92135C4.96186 3.92135 4.87917 3.88724 4.78185 3.81907C4.68455 3.7509 4.58358 3.65726 4.47892 3.538C4.37426 3.41871 4.25623 3.25202 4.12477 3.0379C3.99342 2.82377 3.85713 2.5707 3.71598 2.27869L3.5992 2.06691C3.52619 1.93068 3.42647 1.7323 3.29992 1.47197C3.1733 1.21154 3.06138 0.959618 2.96408 0.716265C2.92519 0.614061 2.86676 0.536251 2.7889 0.482707L2.75236 0.460742C2.72807 0.441308 2.68907 0.420673 2.63558 0.398682C2.58201 0.376717 2.52611 0.360966 2.46766 0.351275L0.467323 0.365799C0.262914 0.365799 0.12422 0.412107 0.0511917 0.504595L0.0219649 0.548345C0.00736425 0.572714 0 0.611632 0 0.665202C0 0.718746 0.0146006 0.784462 0.0438275 0.862272C0.33584 1.54858 0.653398 2.21047 0.9965 2.84804C1.3396 3.48561 1.63775 3.99919 1.89077 4.38831C2.14384 4.77772 2.40179 5.14525 2.66463 5.4907C2.92747 5.83628 3.10145 6.05775 3.18657 6.15504C3.2718 6.25252 3.33874 6.32539 3.3874 6.37405L3.56995 6.54923C3.68675 6.66607 3.85828 6.80599 4.0846 6.969C4.31097 7.13211 4.56159 7.29269 4.83657 7.451C5.1116 7.60905 5.43157 7.73802 5.79663 7.83777C6.16165 7.93762 6.51692 7.97769 6.8625 7.95836H7.70208C7.87235 7.94366 8.00135 7.89012 8.08904 7.7977L8.11808 7.76111C8.13762 7.73207 8.1559 7.68693 8.17278 7.6262C8.18986 7.56537 8.19835 7.49835 8.19835 7.42545C8.19336 7.21621 8.20929 7.02763 8.2457 6.85973C8.28209 6.69189 8.32357 6.56534 8.36995 6.48012C8.41631 6.39497 8.46863 6.32312 8.52685 6.26487C8.5852 6.20649 8.62678 6.17113 8.65117 6.15895C8.67541 6.14671 8.69477 6.1384 8.70937 6.13341C8.82618 6.09449 8.96364 6.13218 9.12197 6.24666C9.28018 6.36104 9.42856 6.50226 9.56736 6.6701C9.70607 6.8381 9.87274 7.02658 10.0674 7.23582C10.2622 7.44514 10.4325 7.60074 10.5784 7.70309L10.7244 7.7907C10.8218 7.84915 10.9484 7.9027 11.1042 7.95136C11.2596 7.99999 11.3959 8.01216 11.5129 7.98784L13.3817 7.95869C13.5666 7.95869 13.7104 7.92809 13.8124 7.86736C13.9147 7.80653 13.9754 7.73951 13.995 7.6666C14.0145 7.59363 14.0156 7.51083 13.9987 7.41827C13.9814 7.32593 13.9643 7.26137 13.9473 7.22488Z" fill="#F8BB12"/>
</svg>
